<svg width="24" height="23" viewBox="0 0 24 23" fill="none" xmlns="http://www.w3.org/2000/svg">
<path d="M12 0.982666C5.85612 0.982666 0.857143 5.36391 0.857143 10.7486C0.857143 14.6891 3.60746 18.1678 7.71428 19.6857V20.5147H1.71429V19.0122H0V22.0171H9.42857V18.7158L8.8577 18.5383C5.08557 17.3691 2.57143 14.2522 2.57143 10.7487C2.57143 6.17598 6.78259 2.48524 12 2.48524C17.2174 2.48524 21.4286 6.17598 21.4286 10.7487C21.4286 14.2521 18.9143 17.3692 15.1456 18.5383L14.5764 18.7158L14.5698 22.0171H24V19.0122H22.2857V20.5147H16.2874L16.2891 19.6842C20.3927 18.1662 23.1429 14.689 23.1429 10.7486C23.1429 5.36391 18.1439 0.982666 12 0.982666Z" fill="#A3D7FF"/>
</svg>
